<svg width="21" height="133" viewBox="0 0 21 133" fill="none" xmlns="http://www.w3.org/2000/svg">
<path d="M0.155 132.894L0.154999 128.115C0.154999 124.119 1.1 121.329 2.99 119.745C4.88 118.143 7.13 117.342 9.74 117.342C11.558 117.342 13.241 117.684 14.789 118.368C16.319 119.052 17.57 120.186 18.542 121.77C19.514 123.336 20 125.397 20 127.953L20 132.894L0.155 132.894ZM17.327 127.629C17.327 125.145 16.625 123.345 15.221 122.229C13.799 121.095 12.017 120.528 9.875 120.528C7.787 120.528 6.086 121.095 4.772 122.229C3.458 123.363 2.801 125.163 2.801 127.629L2.801 129.87L17.327 129.87L17.327 127.629ZM0.154999 115.007L0.154998 105.692L2.774 105.692L2.774 112.01L8.39 112.01L8.39 107.096L11.036 107.096L11.036 112.01L20 112.01L20 115.007L0.154999 115.007ZM7.607 104.139L7.607 101.223L10.037 101.223C9.209 100.935 8.543 100.467 8.039 99.819C7.535 99.171 7.283 98.433 7.283 97.605C7.283 97.029 7.337 96.633 7.445 96.417L10.388 96.822C10.28 96.984 10.226 97.335 10.226 97.875C10.226 98.721 10.496 99.495 11.036 100.197C11.576 100.881 12.44 101.223 13.628 101.223L20 101.223L20 104.139L7.607 104.139ZM20.27 89.1709C20.27 90.6469 19.982 91.8799 19.406 92.8699C18.812 93.8599 18.029 94.5889 17.057 95.0569C16.067 95.5249 14.987 95.7589 13.817 95.7589C12.503 95.7589 11.351 95.4889 10.361 94.9489C9.371 94.3909 8.615 93.6259 8.093 92.6539C7.553 91.6819 7.283 90.5839 7.283 89.3599C7.283 87.4519 7.814 86.0389 8.876 85.1209C9.92 84.1849 11.396 83.7169 13.304 83.7169C13.79 83.7169 14.294 83.7439 14.816 83.7979L14.816 92.7079C15.914 92.5099 16.706 92.1229 17.192 91.5469C17.678 90.9529 17.921 90.1339 17.921 89.0899C17.921 88.2259 17.849 87.5149 17.705 86.9569C17.561 86.3989 17.363 85.8859 17.111 85.4179L19.19 84.5269C19.478 84.9769 19.73 85.5889 19.946 86.3629C20.162 87.1369 20.27 88.0729 20.27 89.1709ZM12.791 86.5519C11.675 86.5339 10.892 86.7769 10.442 87.2809C9.974 87.7849 9.74 88.5049 9.74 89.4409C9.74 91.3309 10.757 92.4199 12.791 92.7079L12.791 86.5519ZM7.607 81.1188L7.607 78.0948L20 78.0948L20 81.1188L7.607 81.1188ZM5.285 79.6338C5.285 80.1918 5.096 80.6598 4.718 81.0378C4.34 81.4158 3.872 81.6048 3.314 81.6048C2.81 81.6048 2.378 81.4158 2.018 81.0378C1.658 80.6598 1.478 80.1918 1.478 79.6338C1.478 79.0938 1.658 78.6348 2.018 78.2568C2.378 77.8788 2.81 77.6898 3.314 77.6898C3.872 77.6898 4.34 77.8788 4.718 78.2568C5.096 78.6168 5.285 79.0758 5.285 79.6338ZM20.27 69.2514C20.27 70.3674 20.009 71.4024 19.487 72.3564C18.947 73.2924 18.191 74.0484 17.219 74.6244C16.229 75.1824 15.077 75.4614 13.763 75.4614C11.801 75.4614 10.235 74.9124 9.065 73.8144C7.877 72.7164 7.283 71.2314 7.283 69.3594C7.283 68.3154 7.544 67.3614 8.066 66.4974C8.57 65.6334 9.182 65.0484 9.902 64.7424L7.796 64.8774L0.154997 64.8774L0.154996 62.0154L20 62.0154L20 64.7964L17.813 64.8504C18.461 65.1564 19.037 65.7144 19.541 66.5244C20.027 67.3344 20.27 68.2434 20.27 69.2514ZM17.813 68.7654C17.813 67.7394 17.462 66.8754 16.76 66.1734C16.04 65.4714 15.104 65.1204 13.952 65.1204L13.763 65.1204C12.989 65.1204 12.296 65.2824 11.684 65.6064C11.072 65.9304 10.595 66.3714 10.253 66.9294C9.911 67.4874 9.74 68.0994 9.74 68.7654C9.74 69.9174 10.118 70.8084 10.874 71.4384C11.612 72.0684 12.575 72.3834 13.763 72.3834C14.969 72.3834 15.95 72.0774 16.706 71.4654C17.444 70.8354 17.813 69.9354 17.813 68.7654ZM7.607 58.8225L7.607 55.9065L9.848 55.9065C9.002 55.5105 8.363 54.9345 7.931 54.1785C7.499 53.4045 7.283 52.5225 7.283 51.5325C7.301 49.3185 8.066 47.9595 9.578 47.4555C8.876 47.0595 8.318 46.4655 7.904 45.6735C7.49 44.8815 7.283 44.0445 7.283 43.1625C7.283 41.8665 7.535 40.8855 8.039 40.2195C8.525 39.5535 9.227 39.1125 10.145 38.8965C11.045 38.6625 12.26 38.5455 13.79 38.5455L20 38.5455L20 41.4885L13.763 41.4885C12.305 41.4885 11.261 41.6415 10.631 41.9475C10.001 42.2355 9.686 42.8025 9.686 43.6485C9.686 44.7825 10.073 45.6465 10.847 46.2405C11.603 46.8165 12.602 47.1045 13.844 47.1045L20 47.1045L20 50.0205L13.331 50.0205C12.377 50.0205 11.666 50.0565 11.198 50.1285C10.73 50.2005 10.361 50.3985 10.091 50.7225C9.821 51.0465 9.686 51.5685 9.686 52.2885C9.686 52.9185 9.875 53.5125 10.253 54.0705C10.631 54.6105 11.144 55.0515 11.792 55.3935C12.422 55.7175 13.106 55.8795 13.844 55.8795L20 55.8795L20 58.8225L7.607 58.8225ZM20.27 30.0223C20.27 31.1383 20.009 32.1733 19.487 33.1273C18.947 34.0633 18.191 34.8193 17.219 35.3953C16.229 35.9533 15.077 36.2323 13.763 36.2323C12.467 36.2323 11.333 35.9893 10.361 35.5033C9.389 34.9993 8.633 34.2883 8.093 33.3703C7.553 32.4523 7.283 31.3723 7.28299 30.1303C7.28299 29.4103 7.40899 28.7353 7.66099 28.1053C7.91299 27.4753 8.22799 26.9443 8.60599 26.5123C8.96599 26.0803 9.32599 25.7923 9.68599 25.6483L7.60699 25.5943L7.60699 22.8133L20 22.8133L20 25.5673L17.813 25.6213C18.461 25.9273 19.037 26.4853 19.541 27.2953C20.027 28.1053 20.27 29.0143 20.27 30.0223ZM17.84 29.5363C17.84 28.5103 17.489 27.6463 16.787 26.9443C16.067 26.2423 15.131 25.8913 13.979 25.8913L13.79 25.8913C13.016 25.8913 12.323 26.0533 11.711 26.3773C11.099 26.7013 10.622 27.1423 10.28 27.7003C9.938 28.2583 9.767 28.8703 9.767 29.5363C9.767 30.6883 10.145 31.5793 10.901 32.2093C11.639 32.8393 12.602 33.1543 13.79 33.1543C14.996 33.1543 15.977 32.8483 16.733 32.2363C17.471 31.6063 17.84 30.7063 17.84 29.5363ZM7.60699 19.567L7.60699 16.705L9.87499 16.678C9.11899 16.336 8.49799 15.796 8.01199 15.058C7.52599 14.32 7.28299 13.456 7.28299 12.466C7.28299 11.188 7.55299 10.207 8.09299 9.52298C8.61499 8.83898 9.35299 8.37998 10.307 8.14598C11.261 7.91198 12.503 7.79498 14.033 7.79498L20 7.79498L20 10.711L14.114 10.711C12.548 10.711 11.423 10.864 10.739 11.17C10.037 11.476 9.68599 12.106 9.68599 13.06C9.68599 13.6 9.85699 14.149 10.199 14.707C10.523 15.265 11 15.733 11.63 16.111C12.26 16.471 12.998 16.651 13.844 16.651L20 16.651L20 19.567L7.60699 19.567ZM20.27 2.71371C20.27 3.25371 20.09 3.71271 19.73 4.09071C19.352 4.46871 18.893 4.65771 18.353 4.65771C17.795 4.65771 17.336 4.47771 16.976 4.11771C16.598 3.73971 16.409 3.27171 16.409 2.71371C16.409 2.15571 16.598 1.69671 16.976 1.33671C17.336 0.958706 17.795 0.769706 18.353 0.769706C18.893 0.769706 19.352 0.958706 19.73 1.33671C20.09 1.69671 20.27 2.15571 20.27 2.71371Z" fill="black"/>
</svg>
