<svg width="133" height="21" viewBox="0 0 133 21" fill="none" xmlns="http://www.w3.org/2000/svg">
<path d="M0.106 0.155H4.885C8.881 0.155 11.671 1.1 13.255 2.99C14.857 4.88 15.658 7.13 15.658 9.74C15.658 11.558 15.316 13.241 14.632 14.789C13.948 16.319 12.814 17.57 11.23 18.542C9.664 19.514 7.603 20 5.047 20H0.106V0.155ZM5.371 17.327C7.855 17.327 9.655 16.625 10.771 15.221C11.905 13.799 12.472 12.017 12.472 9.875C12.472 7.787 11.905 6.086 10.771 4.772C9.637 3.458 7.837 2.801 5.371 2.801H3.13V17.327H5.371ZM17.9929 0.155H27.3079V2.774H20.9899V8.39H25.9039V11.036H20.9899V20H17.9929V0.155ZM28.861 7.607H31.777V10.037C32.065 9.209 32.533 8.543 33.181 8.039C33.829 7.535 34.567 7.283 35.395 7.283C35.971 7.283 36.367 7.337 36.583 7.445L36.178 10.388C36.016 10.28 35.665 10.226 35.125 10.226C34.279 10.226 33.505 10.496 32.803 11.036C32.119 11.576 31.777 12.44 31.777 13.628V20H28.861V7.607ZM43.8291 20.27C42.3531 20.27 41.1201 19.982 40.1301 19.406C39.1401 18.812 38.4111 18.029 37.9431 17.057C37.4751 16.067 37.2411 14.987 37.2411 13.817C37.2411 12.503 37.5111 11.351 38.0511 10.361C38.6091 9.371 39.3741 8.615 40.3461 8.093C41.3181 7.553 42.4161 7.283 43.6401 7.283C45.5481 7.283 46.9611 7.814 47.8791 8.876C48.8151 9.92 49.2831 11.396 49.2831 13.304C49.2831 13.79 49.2561 14.294 49.2021 14.816H40.2921C40.4901 15.914 40.8771 16.706 41.4531 17.192C42.0471 17.678 42.8661 17.921 43.9101 17.921C44.7741 17.921 45.4851 17.849 46.0431 17.705C46.6011 17.561 47.1141 17.363 47.5821 17.111L48.4731 19.19C48.0231 19.478 47.4111 19.73 46.6371 19.946C45.8631 20.162 44.9271 20.27 43.8291 20.27ZM46.4481 12.791C46.4661 11.675 46.2231 10.892 45.7191 10.442C45.2151 9.974 44.4951 9.74 43.5591 9.74C41.6691 9.74 40.5801 10.757 40.2921 12.791H46.4481ZM51.8812 7.607H54.9052V20H51.8812V7.607ZM53.3662 5.285C52.8082 5.285 52.3402 5.096 51.9622 4.718C51.5842 4.34 51.3952 3.872 51.3952 3.314C51.3952 2.81 51.5842 2.378 51.9622 2.018C52.3402 1.658 52.8082 1.478 53.3662 1.478C53.9062 1.478 54.3652 1.658 54.7432 2.018C55.1212 2.378 55.3102 2.81 55.3102 3.314C55.3102 3.872 55.1212 4.34 54.7432 4.718C54.3832 5.096 53.9242 5.285 53.3662 5.285ZM63.7486 20.27C62.6326 20.27 61.5976 20.009 60.6436 19.487C59.7076 18.947 58.9516 18.191 58.3756 17.219C57.8176 16.229 57.5386 15.077 57.5386 13.763C57.5386 11.801 58.0876 10.235 59.1856 9.065C60.2836 7.877 61.7686 7.283 63.6406 7.283C64.6846 7.283 65.6386 7.544 66.5026 8.066C67.3666 8.57 67.9516 9.182 68.2576 9.902L68.1226 7.796V0.155H70.9846V20H68.2036L68.1496 17.813C67.8436 18.461 67.2856 19.037 66.4756 19.541C65.6656 20.027 64.7566 20.27 63.7486 20.27ZM64.2346 17.813C65.2606 17.813 66.1246 17.462 66.8266 16.76C67.5286 16.04 67.8796 15.104 67.8796 13.952V13.763C67.8796 12.989 67.7176 12.296 67.3936 11.684C67.0696 11.072 66.6286 10.595 66.0706 10.253C65.5126 9.911 64.9006 9.74 64.2346 9.74C63.0826 9.74 62.1916 10.118 61.5616 10.874C60.9316 11.612 60.6166 12.575 60.6166 13.763C60.6166 14.969 60.9226 15.95 61.5346 16.706C62.1646 17.444 63.0646 17.813 64.2346 17.813ZM74.1775 7.607H77.0935V9.848C77.4895 9.002 78.0655 8.363 78.8215 7.931C79.5955 7.499 80.4775 7.283 81.4675 7.283C83.6815 7.301 85.0405 8.066 85.5445 9.578C85.9405 8.876 86.5345 8.318 87.3265 7.904C88.1185 7.49 88.9555 7.283 89.8375 7.283C91.1335 7.283 92.1145 7.535 92.7805 8.039C93.4465 8.525 93.8875 9.227 94.1035 10.145C94.3375 11.045 94.4545 12.26 94.4545 13.79V20H91.5115V13.763C91.5115 12.305 91.3585 11.261 91.0525 10.631C90.7645 10.001 90.1975 9.686 89.3515 9.686C88.2175 9.686 87.3535 10.073 86.7595 10.847C86.1835 11.603 85.8955 12.602 85.8955 13.844V20H82.9795V13.331C82.9795 12.377 82.9435 11.666 82.8715 11.198C82.7995 10.73 82.6015 10.361 82.2775 10.091C81.9535 9.821 81.4315 9.686 80.7115 9.686C80.0815 9.686 79.4875 9.875 78.9295 10.253C78.3895 10.631 77.9485 11.144 77.6065 11.792C77.2825 12.422 77.1205 13.106 77.1205 13.844V20H74.1775V7.607ZM102.978 20.27C101.862 20.27 100.827 20.009 99.8727 19.487C98.9367 18.947 98.1807 18.191 97.6047 17.219C97.0467 16.229 96.7677 15.077 96.7677 13.763C96.7677 12.467 97.0107 11.333 97.4967 10.361C98.0007 9.389 98.7117 8.633 99.6297 8.093C100.548 7.553 101.628 7.283 102.87 7.283C103.59 7.283 104.265 7.409 104.895 7.661C105.525 7.913 106.056 8.228 106.488 8.606C106.92 8.966 107.208 9.326 107.352 9.686L107.406 7.607H110.187V20H107.433L107.379 17.813C107.073 18.461 106.515 19.037 105.705 19.541C104.895 20.027 103.986 20.27 102.978 20.27ZM103.464 17.84C104.49 17.84 105.354 17.489 106.056 16.787C106.758 16.067 107.109 15.131 107.109 13.979V13.79C107.109 13.016 106.947 12.323 106.623 11.711C106.299 11.099 105.858 10.622 105.3 10.28C104.742 9.938 104.13 9.767 103.464 9.767C102.312 9.767 101.421 10.145 100.791 10.901C100.161 11.639 99.8457 12.602 99.8457 13.79C99.8457 14.996 100.152 15.977 100.764 16.733C101.394 17.471 102.294 17.84 103.464 17.84ZM113.433 7.607H116.295L116.322 9.875C116.664 9.119 117.204 8.498 117.942 8.012C118.68 7.526 119.544 7.283 120.534 7.283C121.812 7.283 122.793 7.553 123.477 8.093C124.161 8.615 124.62 9.353 124.854 10.307C125.088 11.261 125.205 12.503 125.205 14.033V20H122.289V14.114C122.289 12.548 122.136 11.423 121.83 10.739C121.524 10.037 120.894 9.686 119.94 9.686C119.4 9.686 118.851 9.857 118.293 10.199C117.735 10.523 117.267 11 116.889 11.63C116.529 12.26 116.349 12.998 116.349 13.844V20H113.433V7.607ZM130.286 20.27C129.746 20.27 129.287 20.09 128.909 19.73C128.531 19.352 128.342 18.893 128.342 18.353C128.342 17.795 128.522 17.336 128.882 16.976C129.26 16.598 129.728 16.409 130.286 16.409C130.844 16.409 131.303 16.598 131.663 16.976C132.041 17.336 132.23 17.795 132.23 18.353C132.23 18.893 132.041 19.352 131.663 19.73C131.303 20.09 130.844 20.27 130.286 20.27Z" fill="black"/>
</svg>
