<svg width="8" height="15" viewBox="0 0 8 15" fill="none" xmlns="http://www.w3.org/2000/svg">
<path d="M0.104542 1.44092C0.0376344 1.37052 0 1.27468 0 1.17471C0 1.07474 0.0376344 0.978903 0.104542 0.908501L0.853797 0.113622C0.917932 0.0411248 1.00748 0 1.10119 0C1.19491 0 1.28445 0.0411248 1.34859 0.113622L7.84449 7.00508C7.94394 7.11045 7.99988 7.2534 8 7.40252V7.59749C7.99988 7.7466 7.94394 7.88955 7.84449 7.99493L1.34859 14.8864C1.28445 14.9589 1.19491 15 1.10119 15C1.00748 15 0.917932 14.9589 0.853797 14.8864L0.104542 14.0915C0.0376344 14.0211 0 13.9253 0 13.8253C0 13.7253 0.0376344 13.6295 0.104542 13.5591L5.81585 7.5L0.104542 1.44092Z" fill="#767676"/>
</svg>
