<svg width="8" height="15" viewBox="0 0 8 15" fill="none" xmlns="http://www.w3.org/2000/svg">
<path d="M7.89546 13.5591C7.96237 13.6295 8 13.7253 8 13.8253C8 13.9253 7.96237 14.0211 7.89546 14.0915L7.1462 14.8864C7.08207 14.9589 6.99252 15 6.89881 15C6.80509 15 6.71555 14.9589 6.65141 14.8864L0.155506 7.99492C0.0560581 7.88955 0.000124612 7.7466 6.47148e-07 7.59748L6.64193e-07 7.40251C0.000124655 7.2534 0.0560581 7.11045 0.155506 7.00507L6.65141 0.113621C6.71555 0.0411242 6.80509 -1.04462e-07 6.89881 -9.62694e-08C6.99253 -8.80763e-08 7.08207 0.0411243 7.1462 0.113621L7.89546 0.9085C7.96237 0.978902 8 1.07474 8 1.17471C8 1.27468 7.96237 1.37052 7.89546 1.44092L2.18415 7.5L7.89546 13.5591Z" fill="#767676"/>
</svg>
